<svg width="229" height="61" viewBox="0 0 229 61" fill="none" xmlns="http://www.w3.org/2000/svg">
<path fill-rule="evenodd" clip-rule="evenodd" d="M24.6299 44.3109H18.9218C18.1777 42.4437 17.5611 40.7522 17.0722 39.2364H7.88825L6.45324 44.3109H0.936523C3.12615 36.8419 5.7623 29.1861 8.84488 21.3436H16.7852C19.2301 29.6913 21.8449 37.3471 24.6299 44.3109ZM12.9585 25.9567H12.1295C11.3216 28.0876 10.3543 30.9874 9.22752 34.6561H15.5734C14.553 31.4267 13.6814 28.527 12.9585 25.9567ZM39.6813 25.9897H31.3265V44.3109H26.1924V21.3436H44.8154V44.3109H39.6813V25.9897ZM70.454 44.3109H64.7459C64.0018 42.4437 63.3853 40.7522 62.8964 39.2364H53.7124L52.2773 44.3109H46.7606C48.9503 36.8419 51.5864 29.1861 54.669 21.3436H62.6093C65.0542 29.6913 67.669 37.3471 70.454 44.3109ZM58.7826 25.9567H57.9536C57.1457 28.0876 56.1784 30.9874 55.0517 34.6561H61.3976C60.3771 31.4267 59.5055 28.527 58.7826 25.9567ZM78.6493 37.3581H70.2626V32.5142H78.6493V37.3581ZM81.0729 32.6131C81.0729 28.0217 81.9339 24.8804 83.6558 23.1889C84.5488 22.3101 85.617 21.6895 86.8608 21.3271C88.1044 20.9646 89.6829 20.7833 91.5961 20.7833C94.041 20.7833 96.1882 21.0579 98.0378 21.6071L97.0492 26.2863C95.9224 25.8689 94.4662 25.6603 92.6804 25.6603C91.3836 25.6603 90.4056 25.7316 89.7467 25.8744C89.0876 26.0171 88.4924 26.3192 87.961 26.7806C87.0255 27.6373 86.5578 29.6034 86.5578 32.679C86.5578 35.7544 87.0255 37.7426 87.961 38.6432C88.4711 39.1265 89.0664 39.4506 89.7467 39.6153C90.4269 39.78 91.4049 39.8625 92.6804 39.8625C94.3811 39.8625 95.8375 39.6537 97.0492 39.2364L98.0378 44.0144C96.1244 44.5196 93.9772 44.7722 91.5961 44.7722C87.8971 44.7722 85.2184 43.8825 83.5603 42.1032C81.902 40.3238 81.0729 37.1604 81.0729 32.6131ZM100.876 44.3109V21.3436H117.458V25.9897H106.01V30.1087H114.205V34.6561H106.01V39.6647H117.458V44.3109H100.876ZM125.972 25.8909V32.7778H131.457C132.945 32.7778 133.689 31.6575 133.689 29.4167C133.689 27.0662 132.967 25.8909 131.521 25.8909H125.972ZM125.972 37.1604V44.3109H120.838V21.3436H133.307C135.22 21.3436 136.703 22.0575 137.755 23.4854C138.807 24.9133 139.334 26.8903 139.334 29.4167C139.334 31.6135 138.802 33.4588 137.739 34.9526C136.698 36.4245 135.209 37.1604 133.275 37.1604H125.972ZM147.784 39.7965H154.003C155.087 39.7965 155.629 38.9507 155.629 37.2593C155.629 35.4359 155.044 34.5243 153.875 34.5243H147.784V39.7965ZM147.784 30.2076H153.843C154.353 30.2076 154.72 30.0428 154.943 29.7133C155.166 29.3837 155.278 28.8236 155.278 28.0327C155.278 27.2419 155.166 26.6817 154.943 26.3522C154.72 26.0226 154.353 25.8579 153.843 25.8579H147.784V30.2076ZM156.043 32.2177C158.042 32.3055 159.402 32.8217 160.125 33.7663C160.848 34.711 161.209 36.1608 161.209 38.1161C161.209 40.2908 160.72 41.867 159.742 42.8446C158.765 43.8222 157.298 44.3109 155.342 44.3109H142.65V21.3436H155.246C157.372 21.3436 158.828 21.7829 159.615 22.6616C160.402 23.5403 160.795 24.9353 160.795 26.8464C160.795 28.6039 160.465 29.9 159.806 30.7347C159.168 31.5696 157.914 32.0638 156.043 32.2177ZM179.577 21.3436H185.828V44.3109H180.789V29.1861C177.855 34.8098 175.06 39.8515 172.402 44.3109H165.706V21.3436H170.744V37.0944C174.103 31.4048 177.047 26.1545 179.577 21.3436ZM190.037 32.6131C190.037 28.0217 190.898 24.8804 192.62 23.1889C193.513 22.3101 194.581 21.6895 195.825 21.3271C197.068 20.9646 198.647 20.7833 200.56 20.7833C203.005 20.7833 205.152 21.0579 207.002 21.6071L206.013 26.2863C204.886 25.8689 203.43 25.6603 201.644 25.6603C200.348 25.6603 199.37 25.7316 198.711 25.8744C198.052 26.0171 197.456 26.3192 196.925 26.7806C195.989 27.6373 195.522 29.6034 195.522 32.679C195.522 35.7544 195.989 37.7426 196.925 38.6432C197.435 39.1265 198.03 39.4506 198.711 39.6153C199.391 39.78 200.369 39.8625 201.644 39.8625C203.345 39.8625 204.801 39.6537 206.013 39.2364L207.002 44.0144C205.088 44.5196 202.941 44.7722 200.56 44.7722C196.861 44.7722 194.182 43.8825 192.524 42.1032C190.866 40.3238 190.037 37.1604 190.037 32.6131Z" fill="#EC6023"/>
<path fill-rule="evenodd" clip-rule="evenodd" d="M206.844 16.623C206.844 15.2169 207.255 14.3233 208.251 13.5293C208.413 13.4001 208.492 13.355 208.681 13.2616L209.161 13.0472C209.161 15.2229 209.439 16.7727 210.358 18.5055C210.617 18.9932 211.064 19.6081 211.136 19.9305C210.227 20.0093 209.293 20.1713 208.202 19.3207C207.557 18.8177 206.844 17.7671 206.844 16.623ZM227.531 13.5836C227.531 18.4571 223.672 22.4314 218.959 22.3716C217.735 22.3561 216.601 22.111 215.628 21.5994C215.121 21.3332 214.676 21.1168 214.23 20.8202C214.055 20.7038 213.814 20.5174 213.646 20.3554C211.514 18.3015 210.725 16.5963 210.597 13.3661C210.501 10.9411 211.928 8.45785 213.173 7.21243C213.67 6.71505 214.409 6.18254 215.024 5.83285C215.282 5.6861 215.489 5.55068 215.761 5.43842C216.278 5.2248 216.843 5.07276 217.418 4.92876C219.388 4.43529 222.047 5.03742 223.742 6.26517C223.969 6.4297 224.142 6.52714 224.357 6.69812C225.037 7.23973 225.885 8.3328 226.348 9.09437C227.015 10.1949 227.531 12.0777 227.531 13.5836ZM205.385 16.1761C205.385 19.2028 207.245 21.2339 209.859 21.5292C210.988 21.6567 211.602 21.2711 212.338 21.0926C212.741 21.7202 214.519 22.8351 215.223 23.0934C216.512 23.5664 217.201 23.7943 218.502 23.8799L220.042 23.8269C220.904 23.7535 221.74 23.5275 222.607 23.2064L224.219 22.3815C225.098 21.7952 226.152 20.8573 226.809 19.9834C229.776 16.037 229.547 10.7042 226.699 7.02961C225.903 6.00204 225.205 5.4344 224.133 4.69641C221.873 3.14151 218.061 2.78136 215.443 3.94552L214.625 4.34535C214.3 4.51348 214.084 4.64975 213.8 4.82697L211.538 6.85058L210.764 7.9227C210.106 9.08517 209.824 9.65979 209.48 10.965C209.399 11.2699 209.481 11.4265 208.867 11.5787C208.56 11.6548 208.644 11.613 208.4 11.7182C206.735 12.4377 205.385 14.4119 205.385 16.1761Z" fill="#00ADC8"/>
<path fill-rule="evenodd" clip-rule="evenodd" d="M192.584 7.25804C192.584 5.63278 193.268 4.35202 194.063 3.5241C197.832 -0.400703 204.277 3.98139 202.138 9.25192C201.03 11.9821 198.089 13.0711 195.39 11.8446C194.835 11.5925 194.325 11.1446 193.922 10.6913C193.124 9.79289 192.584 8.5517 192.584 7.25804ZM197.305 13.8731C198.459 13.8731 199.411 13.709 200.426 13.1906C201.716 12.5323 202.919 11.1634 203.474 9.74962C204.262 7.74347 204.072 6.16709 203.327 4.29362C203.052 3.60134 202.376 2.69492 201.816 2.2024C201.802 2.19044 201.783 2.17362 201.769 2.16166C201.696 2.09755 201.629 2.03576 201.535 1.95788C200.462 1.06606 198.898 0.47525 197.513 0.528469C195.805 0.594068 194.061 1.25534 193.009 2.51568L192.644 2.9408C190.481 5.71668 190.833 9.81828 192.967 11.8647C193.548 12.4213 194.089 12.8806 194.813 13.2498C195.396 13.5471 196.54 13.8731 197.305 13.8731Z" fill="#00ADC8"/>
<path fill-rule="evenodd" clip-rule="evenodd" d="M204.408 31.7257C204.408 30.2551 206.245 29.46 207.224 30.4914C208.879 32.2348 206.431 34.5646 204.914 32.9858C204.696 32.7591 204.408 32.1639 204.408 31.7257ZM206.21 35.0332L207.317 34.7558C209.962 33.5657 209.699 29.7585 207.342 28.7592C206.722 28.4966 205.987 28.4312 205.421 28.5889C201.667 29.6332 202.543 35.0332 206.21 35.0332Z" fill="#00ADC8"/>
<path fill-rule="evenodd" clip-rule="evenodd" d="M225.471 10.3655C225.471 10.4762 225.788 11.1635 225.86 11.39C226.811 14.3714 225.471 14.9456 226.204 15.3102C227.282 15.8464 227.128 10.7751 225.9 9.91838C225.675 10.0306 225.471 10.0049 225.471 10.3655Z" fill="#00ADC8"/>
<path fill-rule="evenodd" clip-rule="evenodd" d="M200.996 7.16853C200.996 7.67977 201.028 8.15684 200.824 8.59889C200.995 8.71792 201.062 8.76162 201.253 8.86711C202.123 8.26053 201.726 6.49487 201.397 5.76694C201.134 5.1829 200.907 4.48671 200.481 4.48671C199.554 4.48671 200.996 6.12043 200.996 7.16853Z" fill="#00ADC8"/>
<path fill-rule="evenodd" clip-rule="evenodd" d="M206.382 30.9211C206.382 31.4727 206.553 31.3364 206.553 31.6363C206.553 32.1801 206.468 32.2883 206.468 32.7984C206.722 32.9253 206.813 33.004 207.022 32.845C207.556 32.4395 207.283 31.1837 207.069 30.8268C206.853 30.468 206.382 30.5361 206.382 30.9211Z" fill="#00ADC8"/>
<path fill-rule="evenodd" clip-rule="evenodd" d="M1.60498 52.9483C1.70717 52.929 1.82102 52.9146 1.94656 52.9051C2.07198 52.8954 2.18584 52.8906 2.28803 52.8906C2.39032 52.8906 2.50643 52.8954 2.63657 52.9051C2.7666 52.9146 2.88282 52.929 2.98511 52.9483V60.338C2.88282 60.3572 2.7666 60.3715 2.63657 60.3811C2.50643 60.3908 2.39032 60.3956 2.28803 60.3956C2.18584 60.3956 2.07198 60.3908 1.94656 60.3811C1.82102 60.3715 1.70717 60.3572 1.60498 60.338V52.9483ZM3.36139 56.5063L5.63365 52.9483C5.75447 52.929 5.87529 52.9146 5.99612 52.9051C6.11694 52.8954 6.24236 52.8906 6.3725 52.8906C6.51186 52.8906 6.64435 52.8954 6.76978 52.9051C6.89521 52.9146 7.02299 52.929 7.15313 52.9483L4.88088 56.4054L7.54345 60.338C7.41331 60.3572 7.28788 60.3715 7.16706 60.3811C7.04624 60.3908 6.92081 60.3956 6.79067 60.3956C6.66063 60.3956 6.53049 60.3908 6.40035 60.3811C6.27021 60.3715 6.14018 60.3572 6.01004 60.338L3.36139 56.5063ZM11.809 60.5251C11.7627 60.4292 11.7162 60.3211 11.6697 60.2012C11.6232 60.0811 11.586 59.9729 11.5581 59.877C11.5303 59.781 11.5047 59.6657 11.4815 59.5312C11.4583 59.3967 11.442 59.2768 11.4328 59.1712C11.7394 59.104 11.9694 58.9983 12.1228 58.8543C12.2762 58.7102 12.4015 58.5062 12.4991 58.242C12.5966 57.978 12.6641 57.4378 12.7013 56.6215L12.6874 52.9627H17.6499V60.3524C17.5478 60.3715 17.4339 60.3859 17.3085 60.3956C17.183 60.4052 17.0692 60.4099 16.9669 60.4099C16.874 60.4099 16.7648 60.4052 16.6393 60.3956C16.5139 60.3859 16.4 60.3715 16.2979 60.3524V54.0862H14.0952V56.8952C14.0952 57.9612 13.8768 58.8134 13.44 59.4521C13.0033 60.0906 12.4596 60.4483 11.809 60.5251ZM28.5093 52.9483V60.338C28.407 60.3572 28.2932 60.3715 28.1677 60.3811C28.0423 60.3908 27.9284 60.3956 27.8263 60.3956C27.7333 60.3956 27.6241 60.3908 27.4986 60.3811C27.3732 60.3715 27.2593 60.3572 27.157 60.338V55.2243L23.9091 60.338C23.8068 60.3572 23.6929 60.3715 23.5676 60.3811C23.4421 60.3908 23.3282 60.3956 23.226 60.3956C23.1331 60.3956 23.0238 60.3908 22.8984 60.3811C22.773 60.3715 22.6591 60.3572 22.5569 60.338V52.9483C22.6591 52.929 22.773 52.9146 22.8984 52.9051C23.0238 52.8954 23.1331 52.8906 23.226 52.8906C23.3282 52.8906 23.4421 52.8954 23.5676 52.9051C23.6929 52.9146 23.8068 52.929 23.9091 52.9483V58.0187L27.157 52.9483C27.2593 52.929 27.3732 52.9146 27.4986 52.9051C27.6241 52.8954 27.7333 52.8906 27.8263 52.8906C27.9284 52.8906 28.0423 52.8954 28.1677 52.9051C28.2932 52.9146 28.407 52.929 28.5093 52.9483ZM39.5359 52.9483V60.338C39.4336 60.3572 39.3198 60.3715 39.1943 60.3811C39.0689 60.3908 38.955 60.3956 38.8528 60.3956C38.7599 60.3956 38.6507 60.3908 38.5252 60.3811C38.3997 60.3715 38.286 60.3572 38.1837 60.338V57.3273H34.9357V60.338C34.8334 60.3572 34.7195 60.3715 34.5942 60.3811C34.4687 60.3908 34.3548 60.3956 34.2526 60.3956C34.1596 60.3956 34.0505 60.3908 33.925 60.3811C33.7995 60.3715 33.6858 60.3572 33.5835 60.338V52.9483C33.6858 52.929 33.7995 52.9146 33.925 52.9051C34.0505 52.8954 34.1596 52.8906 34.2526 52.8906C34.3548 52.8906 34.4687 52.8954 34.5942 52.9051C34.7195 52.9146 34.8334 52.929 34.9357 52.9483V56.0165H38.1837V52.9483C38.286 52.929 38.3997 52.9146 38.5252 52.9051C38.6507 52.8954 38.7599 52.8906 38.8528 52.8906C38.955 52.8906 39.0689 52.8954 39.1943 52.9051C39.3198 52.9146 39.4336 52.929 39.5359 52.9483ZM50.4509 52.9483V60.338C50.3488 60.3572 50.2349 60.3715 50.1094 60.3811C49.984 60.3908 49.8702 60.3956 49.7679 60.3956C49.675 60.3956 49.5658 60.3908 49.4403 60.3811C49.3148 60.3715 49.2011 60.3572 49.0988 60.338V55.2243L45.8507 60.338C45.7485 60.3572 45.6347 60.3715 45.5093 60.3811C45.3838 60.3908 45.27 60.3956 45.1677 60.3956C45.0748 60.3956 44.9656 60.3908 44.84 60.3811C44.7147 60.3715 44.6008 60.3572 44.4987 60.338V52.9483C44.6008 52.929 44.7147 52.9146 44.84 52.9051C44.9656 52.8954 45.0748 52.8906 45.1677 52.8906C45.27 52.8906 45.3838 52.8954 45.5093 52.9051C45.6347 52.9146 45.7485 52.929 45.8507 52.9483V58.0187L49.0988 52.9483C49.2011 52.929 49.3148 52.9146 49.4403 52.9051C49.5658 52.8954 49.675 52.8906 49.7679 52.8906C49.8702 52.8906 49.984 52.8954 50.1094 52.9051C50.2349 52.9146 50.3488 52.929 50.4509 52.9483ZM61.4775 52.9483V60.338C61.3753 60.3572 61.2615 60.3715 61.136 60.3811C61.0106 60.3908 60.8968 60.3956 60.7946 60.3956C60.7016 60.3956 60.5924 60.3908 60.4669 60.3811C60.3414 60.3715 60.2276 60.3572 60.1253 60.338V57.3273H56.8773V60.338C56.7751 60.3572 56.6613 60.3715 56.5358 60.3811C56.4104 60.3908 56.2965 60.3956 56.1944 60.3956C56.1014 60.3956 55.9921 60.3908 55.8667 60.3811C55.7413 60.3715 55.6274 60.3572 55.5252 60.338V52.9483C55.6274 52.929 55.7413 52.9146 55.8667 52.9051C55.9921 52.8954 56.1014 52.8906 56.1944 52.8906C56.2965 52.8906 56.4104 52.8954 56.5358 52.9051C56.6613 52.9146 56.7751 52.929 56.8773 52.9483V56.0165H60.1253V52.9483C60.2276 52.929 60.3414 52.9146 60.4669 52.9051C60.5924 52.8954 60.7016 52.8906 60.7946 52.8906C60.8968 52.8906 61.0106 52.8954 61.136 52.9051C61.2615 52.9146 61.3753 52.929 61.4775 52.9483ZM66.0778 52.9483H69.8138C69.8416 53.1404 69.8556 53.3372 69.8556 53.5389C69.8556 53.7214 69.8416 53.899 69.8138 54.0718H67.4579V60.338C67.3557 60.3572 67.2418 60.3715 67.1163 60.3811C66.991 60.3908 66.8771 60.3956 66.7748 60.3956C66.6726 60.3956 66.5564 60.3908 66.4263 60.3811C66.2962 60.3715 66.1801 60.3572 66.0778 60.338V52.9483ZM77.4669 60.5108C76.9093 60.5108 76.4215 60.4124 76.0032 60.2156C75.5849 60.0187 75.2365 59.7474 74.9577 59.4016C74.6789 59.0559 74.4722 58.6479 74.3374 58.1772C74.2026 57.7066 74.1353 57.1977 74.1353 56.6503C74.1353 56.103 74.2026 55.5939 74.3374 55.1234C74.4722 54.6529 74.6789 54.2447 74.9577 53.8991C75.2365 53.5533 75.5849 53.2797 76.0032 53.0779C76.4215 52.8762 76.9093 52.7754 77.4669 52.7754C78.0245 52.7754 78.5124 52.8762 78.9305 53.0779C79.3488 53.2797 79.6973 53.5533 79.9762 53.8991C80.2549 54.2447 80.4617 54.6529 80.5965 55.1234C80.7312 55.5939 80.7986 56.103 80.7986 56.6503C80.7986 57.1977 80.7312 57.7066 80.5965 58.1772C80.4617 58.6479 80.2549 59.0559 79.9762 59.4016C79.6973 59.7474 79.3488 60.0187 78.9305 60.2156C78.5124 60.4124 78.0245 60.5108 77.4669 60.5108ZM77.4669 59.3728C78.1081 59.3728 78.5821 59.1328 78.8888 58.6526C79.1954 58.1725 79.3488 57.505 79.3488 56.6503C79.3488 55.7956 79.1954 55.1306 78.8888 54.6552C78.5821 54.18 78.1081 53.9422 77.4669 53.9422C76.8257 53.9422 76.354 54.18 76.052 54.6552C75.75 55.1306 75.599 55.7956 75.599 56.6503C75.599 57.505 75.75 58.1725 76.052 58.6526C76.354 59.1328 76.8257 59.3728 77.4669 59.3728ZM85.7752 52.9051C86.0448 52.857 86.3932 52.8162 86.8207 52.7827C87.2482 52.7491 87.671 52.7322 88.0892 52.7322C88.396 52.7322 88.7398 52.7514 89.1209 52.7898C89.5019 52.8283 89.855 52.9122 90.1803 53.0419C90.5055 53.1715 90.7797 53.3612 91.0027 53.6108C91.2258 53.8606 91.3372 54.1919 91.3372 54.6048C91.3372 55.0754 91.1886 55.4547 90.8912 55.7428C90.5938 56.0309 90.236 56.223 89.8179 56.319V56.3478C90.3569 56.4247 90.8006 56.6167 91.1491 56.924C91.4976 57.2312 91.6719 57.6587 91.6719 58.206C91.6719 58.6958 91.5395 59.0872 91.2746 59.38C91.0097 59.6729 90.6822 59.8961 90.2918 60.0499C89.9014 60.2035 89.4833 60.3043 89.0371 60.3524C88.5911 60.4004 88.1915 60.4244 87.8384 60.4244C87.4294 60.4244 87.0321 60.4148 86.6464 60.3956C86.2608 60.3764 85.9703 60.3572 85.7752 60.338V52.9051ZM87.1831 55.9732C87.4713 55.983 87.7593 55.983 88.0474 55.9732C88.2891 55.9732 88.5284 55.9541 88.7653 55.9157C89.0023 55.8773 89.2138 55.8101 89.3996 55.714C89.5855 55.6179 89.7366 55.4955 89.8527 55.3468C89.9689 55.1978 90.027 55.0082 90.027 54.7776C90.027 54.0478 89.3764 53.6829 88.0753 53.6829C87.8523 53.6829 87.685 53.6878 87.5735 53.6974C87.462 53.7069 87.3318 53.7214 87.1831 53.7406V55.9732ZM87.1692 59.2864C87.3551 59.3056 87.5038 59.3176 87.6153 59.3225C87.7267 59.3272 87.8848 59.3297 88.0892 59.3297C88.3123 59.3297 88.5539 59.3152 88.8141 59.2864C89.0743 59.2575 89.3137 59.2024 89.532 59.1207C89.7505 59.0391 89.9317 58.9239 90.0757 58.775C90.2198 58.6262 90.2918 58.4269 90.2918 58.1772C90.2918 57.9467 90.2314 57.7571 90.1105 57.6082C89.9898 57.4594 89.8248 57.3417 89.6158 57.2554C89.4067 57.1688 89.1627 57.1113 88.8839 57.0825C88.6051 57.0536 88.3123 57.0393 88.0056 57.0393H87.1692V59.2864ZM100.538 56.8664C100.398 56.8472 100.222 56.8279 100.008 56.8088C99.7943 56.7895 99.6131 56.78 99.4644 56.78C98.8882 56.78 98.4491 56.8903 98.1471 57.1113C97.845 57.3322 97.694 57.6682 97.694 58.1196C97.694 58.4077 97.7451 58.6334 97.8474 58.7966C97.9497 58.9599 98.0773 59.0847 98.2307 59.1712C98.384 59.2575 98.5536 59.3104 98.7395 59.3297C98.9253 59.3488 99.102 59.3584 99.2692 59.3584C99.483 59.3584 99.7037 59.3465 99.9314 59.3225C100.159 59.2983 100.361 59.2624 100.538 59.2143V56.8664ZM100.538 55.4692C100.538 54.9025 100.398 54.5088 100.12 54.2879C99.8408 54.0671 99.4366 53.9566 98.9068 53.9566C98.5815 53.9566 98.2772 53.9831 97.9937 54.0359C97.7103 54.0887 97.4338 54.1583 97.1643 54.2447C96.9878 53.9278 96.8994 53.5485 96.8994 53.1068C97.2154 53.0011 97.5639 52.9195 97.9449 52.8619C98.3259 52.8043 98.693 52.7754 99.0463 52.7754C99.9756 52.7754 100.682 52.9939 101.165 53.4309C101.648 53.8677 101.89 54.5664 101.89 55.5267V60.1507C101.565 60.2275 101.17 60.3068 100.705 60.3883C100.24 60.4699 99.7664 60.5108 99.2832 60.5108C98.8278 60.5108 98.4166 60.4676 98.0495 60.3811C97.6824 60.2947 97.371 60.1555 97.1155 59.9634C96.8599 59.7713 96.6625 59.5265 96.523 59.2288C96.3836 58.9311 96.314 58.5709 96.314 58.1485C96.314 57.7355 96.3953 57.3729 96.5579 57.0609C96.7206 56.7488 96.9412 56.4895 97.2201 56.283C97.4988 56.0765 97.8195 55.9229 98.182 55.822C98.5443 55.7212 98.9253 55.6708 99.325 55.6708C99.6224 55.6708 99.8663 55.6779 100.057 55.6924C100.247 55.7068 100.408 55.7236 100.538 55.7428V55.4692ZM106.504 60.338L108.818 57.1977L108.679 57.1401C108.502 57.0536 108.321 56.9456 108.135 56.816C107.949 56.6864 107.782 56.5351 107.633 56.3623C107.485 56.1894 107.364 55.9925 107.271 55.7717C107.178 55.5508 107.131 55.3059 107.131 55.037C107.131 54.5856 107.22 54.2135 107.396 53.9206C107.573 53.6277 107.805 53.3948 108.093 53.222C108.381 53.0491 108.709 52.929 109.076 52.8619C109.443 52.7947 109.813 52.761 110.184 52.761C110.352 52.761 110.565 52.7635 110.826 52.7682C111.086 52.773 111.316 52.7803 111.516 52.7898C111.715 52.7994 111.883 52.8115 112.018 52.8259C112.152 52.8403 112.299 52.857 112.457 52.8762V60.338C112.354 60.3572 112.24 60.3715 112.115 60.3811C111.99 60.3908 111.876 60.3956 111.774 60.3956C111.671 60.3956 111.555 60.3908 111.425 60.3811C111.295 60.3715 111.193 60.3572 111.118 60.338V53.9999C110.747 53.9902 110.507 53.9831 110.4 53.9783C110.293 53.9734 110.18 53.9759 110.059 53.9854C109.473 54.0046 109.067 54.1535 108.839 54.432C108.612 54.7105 108.526 55.0562 108.581 55.4692C108.618 55.69 108.69 55.8653 108.797 55.9949C108.904 56.1245 109.023 56.2326 109.153 56.319C109.283 56.4054 109.455 56.4775 109.669 56.5351C109.882 56.5927 110.138 56.6311 110.435 56.6503L110.519 56.7079V56.8808L107.982 60.338C107.88 60.3572 107.766 60.3715 107.64 60.3811C107.515 60.3908 107.401 60.3956 107.299 60.3956C107.196 60.3956 107.069 60.3931 106.915 60.3883C106.762 60.3836 106.625 60.3668 106.504 60.338ZM124.069 52.9483C124.171 52.929 124.285 52.9146 124.41 52.9051C124.536 52.8954 124.65 52.8906 124.752 52.8906C124.854 52.8906 124.97 52.8954 125.1 52.9051C125.23 52.9146 125.347 52.929 125.449 52.9483V60.338C125.347 60.3572 125.23 60.3715 125.1 60.3811C124.97 60.3908 124.854 60.3956 124.752 60.3956C124.65 60.3956 124.536 60.3908 124.41 60.3811C124.285 60.3715 124.171 60.3572 124.069 60.338V52.9483ZM125.825 56.5063L128.097 52.9483C128.218 52.929 128.339 52.9146 128.46 52.9051C128.581 52.8954 128.706 52.8906 128.836 52.8906C128.976 52.8906 129.108 52.8954 129.234 52.9051C129.359 52.9146 129.487 52.929 129.617 52.9483L127.345 56.4054L130.007 60.338C129.877 60.3572 129.752 60.3715 129.631 60.3811C129.51 60.3908 129.385 60.3956 129.254 60.3956C129.124 60.3956 128.994 60.3908 128.864 60.3811C128.734 60.3715 128.604 60.3572 128.474 60.338L125.825 56.5063ZM137.493 60.5108C136.935 60.5108 136.447 60.4124 136.029 60.2156C135.611 60.0187 135.263 59.7474 134.984 59.4016C134.705 59.0559 134.498 58.6479 134.363 58.1772C134.229 57.7066 134.161 57.1977 134.161 56.6503C134.161 56.103 134.229 55.5939 134.363 55.1234C134.498 54.6529 134.705 54.2447 134.984 53.8991C135.263 53.5533 135.611 53.2797 136.029 53.0779C136.447 52.8762 136.935 52.7754 137.493 52.7754C138.051 52.7754 138.539 52.8762 138.957 53.0779C139.375 53.2797 139.723 53.5533 140.002 53.8991C140.281 54.2447 140.488 54.6529 140.623 55.1234C140.757 55.5939 140.825 56.103 140.825 56.6503C140.825 57.1977 140.757 57.7066 140.623 58.1772C140.488 58.6479 140.281 59.0559 140.002 59.4016C139.723 59.7474 139.375 60.0187 138.957 60.2156C138.539 60.4124 138.051 60.5108 137.493 60.5108ZM137.493 59.3728C138.134 59.3728 138.608 59.1328 138.915 58.6526C139.222 58.1725 139.375 57.505 139.375 56.6503C139.375 55.7956 139.222 55.1306 138.915 54.6552C138.608 54.18 138.134 53.9422 137.493 53.9422C136.852 53.9422 136.38 54.18 136.078 54.6552C135.776 55.1306 135.625 55.7956 135.625 56.6503C135.625 57.505 135.776 58.1725 136.078 58.6526C136.38 59.1328 136.852 59.3728 137.493 59.3728ZM152.242 60.338L151.963 55.1378H151.907L149.858 60.2947C149.737 60.314 149.628 60.3283 149.53 60.338C149.433 60.3475 149.333 60.3524 149.231 60.3524C149.156 60.3524 149.063 60.3475 148.952 60.338C148.84 60.3283 148.738 60.314 148.645 60.2947H148.631L146.763 55.1378H146.693C146.684 55.2818 146.677 55.4115 146.673 55.5267C146.667 55.642 146.663 55.7717 146.659 55.9157C146.655 56.0597 146.645 56.235 146.631 56.4415C146.617 56.6479 146.598 56.9192 146.575 57.2554C146.552 57.5914 146.526 58.0092 146.498 58.5086C146.47 59.0079 146.438 59.6177 146.401 60.338C146.28 60.3572 146.171 60.3715 146.073 60.3811C145.976 60.3908 145.876 60.3956 145.773 60.3956C145.699 60.3956 145.606 60.3908 145.495 60.3811C145.383 60.3715 145.281 60.3572 145.188 60.338H145.174L145.606 52.8619C145.727 52.8427 145.859 52.8259 146.003 52.8115C146.147 52.797 146.317 52.7898 146.512 52.7898C146.689 52.7994 146.842 52.8091 146.972 52.8186C147.102 52.8283 147.228 52.8427 147.349 52.8619L149.314 58.5086H149.342C149.379 58.3644 149.44 58.182 149.523 57.9612C149.607 57.7403 149.723 57.421 149.872 57.0032C150.021 56.5855 150.216 56.0454 150.457 55.3826C150.699 54.7201 151.001 53.8798 151.363 52.8619C151.494 52.8427 151.633 52.8283 151.782 52.8186C151.93 52.8091 152.088 52.8043 152.255 52.8043C152.441 52.8138 152.602 52.821 152.736 52.8259C152.871 52.8306 153.004 52.8427 153.134 52.8619L153.51 60.338C153.389 60.3572 153.276 60.3715 153.169 60.3811C153.062 60.3908 152.957 60.3956 152.855 60.3956C152.781 60.3956 152.683 60.3908 152.562 60.3811C152.441 60.3715 152.335 60.3572 152.242 60.338ZM159.546 60.338C159.435 60.3572 159.316 60.3715 159.191 60.3811C159.065 60.3908 158.956 60.3956 158.863 60.3956C158.761 60.3956 158.647 60.3908 158.522 60.3811C158.396 60.3715 158.287 60.3572 158.194 60.338V52.9483H164.105V60.338C164.002 60.3572 163.889 60.3715 163.763 60.3811C163.638 60.3908 163.524 60.3956 163.422 60.3956C163.329 60.3956 163.219 60.3908 163.094 60.3811C162.968 60.3715 162.855 60.3572 162.752 60.338V54.0718H159.546V60.338ZM173.361 56.8664C173.221 56.8472 173.045 56.8279 172.831 56.8088C172.617 56.7895 172.436 56.78 172.287 56.78C171.711 56.78 171.272 56.8903 170.97 57.1113C170.668 57.3322 170.517 57.6682 170.517 58.1196C170.517 58.4077 170.568 58.6334 170.67 58.7966C170.773 58.9599 170.9 59.0847 171.054 59.1712C171.207 59.2575 171.377 59.3104 171.563 59.3297C171.748 59.3488 171.925 59.3584 172.092 59.3584C172.306 59.3584 172.527 59.3465 172.754 59.3225C172.982 59.2983 173.184 59.2624 173.361 59.2143V56.8664ZM173.361 55.4692C173.361 54.9025 173.221 54.5088 172.943 54.2879C172.664 54.0671 172.26 53.9566 171.73 53.9566C171.405 53.9566 171.1 53.9831 170.817 54.0359C170.533 54.0887 170.257 54.1583 169.987 54.2447C169.811 53.9278 169.722 53.5485 169.722 53.1068C170.038 53.0011 170.387 52.9195 170.768 52.8619C171.149 52.8043 171.516 52.7754 171.869 52.7754C172.799 52.7754 173.505 52.9939 173.988 53.4309C174.471 53.8677 174.713 54.5664 174.713 55.5267V60.1507C174.388 60.2275 173.993 60.3068 173.528 60.3883C173.063 60.4699 172.589 60.5108 172.106 60.5108C171.651 60.5108 171.24 60.4676 170.873 60.3811C170.505 60.2947 170.194 60.1555 169.939 59.9634C169.683 59.7713 169.486 59.5265 169.346 59.2288C169.207 58.9311 169.137 58.5709 169.137 58.1485C169.137 57.7355 169.218 57.3729 169.381 57.0609C169.544 56.7488 169.764 56.4895 170.043 56.283C170.322 56.0765 170.643 55.9229 171.005 55.822C171.367 55.7212 171.748 55.6708 172.148 55.6708C172.445 55.6708 172.689 55.6779 172.88 55.6924C173.07 55.7068 173.231 55.7236 173.361 55.7428V55.4692ZM185.809 52.9483V60.338C185.707 60.3572 185.593 60.3715 185.468 60.3811C185.342 60.3908 185.229 60.3956 185.126 60.3956C185.033 60.3956 184.924 60.3908 184.799 60.3811C184.673 60.3715 184.559 60.3572 184.457 60.338V57.3273H181.209V60.338C181.107 60.3572 180.993 60.3715 180.868 60.3811C180.742 60.3908 180.628 60.3956 180.526 60.3956C180.433 60.3956 180.324 60.3908 180.198 60.3811C180.073 60.3715 179.959 60.3572 179.857 60.338V52.9483C179.959 52.929 180.073 52.9146 180.198 52.9051C180.324 52.8954 180.433 52.8906 180.526 52.8906C180.628 52.8906 180.742 52.8954 180.868 52.9051C180.993 52.9146 181.107 52.929 181.209 52.9483V56.0165H184.457V52.9483C184.559 52.929 184.673 52.9146 184.799 52.9051C184.924 52.8954 185.033 52.8906 185.126 52.8906C185.229 52.8906 185.342 52.8954 185.468 52.9051C185.593 52.9146 185.707 52.929 185.809 52.9483ZM196.724 52.9483V60.338C196.622 60.3572 196.508 60.3715 196.383 60.3811C196.257 60.3908 196.144 60.3956 196.041 60.3956C195.948 60.3956 195.839 60.3908 195.714 60.3811C195.588 60.3715 195.474 60.3572 195.372 60.338V55.2243L192.124 60.338C192.022 60.3572 191.908 60.3715 191.783 60.3811C191.657 60.3908 191.543 60.3956 191.441 60.3956C191.348 60.3956 191.239 60.3908 191.114 60.3811C190.988 60.3715 190.874 60.3572 190.772 60.338V52.9483C190.874 52.929 190.988 52.9146 191.114 52.9051C191.239 52.8954 191.348 52.8906 191.441 52.8906C191.543 52.8906 191.657 52.8954 191.783 52.9051C191.908 52.9146 192.022 52.929 192.124 52.9483V58.0187L195.372 52.9483C195.474 52.929 195.588 52.9146 195.714 52.9051C195.839 52.8954 195.948 52.8906 196.041 52.8906C196.144 52.8906 196.257 52.8954 196.383 52.9051C196.508 52.9146 196.622 52.929 196.724 52.9483ZM201.269 60.338L203.583 57.1977L203.444 57.1401C203.267 57.0536 203.086 56.9456 202.9 56.816C202.714 56.6864 202.547 56.5351 202.398 56.3623C202.249 56.1894 202.129 55.9925 202.036 55.7717C201.943 55.5508 201.896 55.3059 201.896 55.037C201.896 54.5856 201.984 54.2135 202.161 53.9206C202.338 53.6277 202.57 53.3948 202.858 53.222C203.146 53.0491 203.474 52.929 203.841 52.8619C204.208 52.7947 204.577 52.761 204.949 52.761C205.116 52.761 205.33 52.7635 205.59 52.7682C205.851 52.773 206.081 52.7803 206.28 52.7898C206.48 52.7994 206.647 52.8115 206.782 52.8259C206.917 52.8403 207.063 52.857 207.221 52.8762V60.338C207.119 60.3572 207.005 60.3715 206.88 60.3811C206.754 60.3908 206.641 60.3956 206.538 60.3956C206.436 60.3956 206.32 60.3908 206.19 60.3811C206.06 60.3715 205.957 60.3572 205.883 60.338V53.9999C205.511 53.9902 205.272 53.9831 205.165 53.9783C205.058 53.9734 204.945 53.9759 204.824 53.9854C204.238 54.0046 203.832 54.1535 203.604 54.432C203.376 54.7105 203.29 55.0562 203.346 55.4692C203.383 55.69 203.455 55.8653 203.562 55.9949C203.669 56.1245 203.787 56.2326 203.918 56.319C204.048 56.4054 204.22 56.4775 204.433 56.5351C204.647 56.5927 204.903 56.6311 205.2 56.6503L205.284 56.7079V56.8808L202.747 60.338C202.644 60.3572 202.53 60.3715 202.405 60.3811C202.28 60.3908 202.166 60.3956 202.064 60.3956C201.961 60.3956 201.833 60.3931 201.68 60.3883C201.527 60.3836 201.39 60.3668 201.269 60.338Z" fill="#00ADC8"/>
</svg>
