<svg width="40" height="41" viewBox="0 0 40 41" fill="none" xmlns="http://www.w3.org/2000/svg">
<path fill-rule="evenodd" clip-rule="evenodd" d="M20 4.31907C25.34 4.31907 25.9733 4.33907 28.0833 4.43574C33.5067 4.6824 36.0333 7.2524 36.2833 12.6324C36.3767 14.7424 36.3967 15.3724 36.3967 20.7124C36.3967 26.0524 36.3767 26.6857 36.2833 28.7924C36.0333 34.1691 33.51 36.7457 28.0833 36.9924C25.9733 37.0857 25.3433 37.1091 20 37.1091C14.66 37.1091 14.0267 37.0891 11.92 36.9924C6.48667 36.7424 3.97 34.1624 3.72 28.7924C3.62667 26.6857 3.60333 20.7124 3.60333 20.7124C3.60333 20.7124 3.62667 14.7391 3.72 12.6324C3.96667 7.24907 6.49333 4.67907 11.92 4.4324C14.0267 4.33574 14.66 4.31907 20 4.31907ZM20 0.712402C14.5667 0.712402 13.89 0.735736 11.7533 0.835736C4.48667 1.16907 0.453333 5.19907 0.119999 12.4657C0.0233326 14.6024 0 15.2824 0 20.7124C0 26.1457 0.0233326 26.8257 0.119999 28.9591C0.453333 36.2224 4.48667 40.2591 11.7533 40.5924C13.89 40.6891 14.5667 40.7124 20 40.7124C25.4333 40.7124 26.1133 40.6891 28.25 40.5924C35.5033 40.2591 39.5533 36.2291 39.88 28.9591C39.9767 26.8257 40 26.1457 40 20.7124C40 15.2824 39.9767 14.6024 39.88 12.4657C39.5533 5.20907 35.5167 1.16574 28.25 0.835736C26.1133 0.735736 25.4333 0.712402 20 0.712402Z" fill="white"/>
<path fill-rule="evenodd" clip-rule="evenodd" d="M20 10.4424C14.33 10.4424 9.73 15.0391 9.73 20.7124C9.73 26.3857 14.33 30.9824 20 30.9824C25.67 30.9824 30.27 26.3857 30.27 20.7124C30.27 15.0424 25.67 10.4424 20 10.4424ZM13.3333 20.7124C13.3333 24.3957 16.3167 27.3791 20 27.3791C23.68 27.3791 26.67 24.3957 26.67 20.7124C26.67 17.0291 23.68 14.0457 20 14.0457C16.3167 14.0457 13.3333 17.0324 13.3333 20.7124Z" fill="white"/>
<path d="M30.6733 7.63907C29.35 7.63907 28.2733 8.7124 28.2733 10.0391C28.2733 11.3624 29.3467 12.4391 30.6733 12.4391C32 12.4391 33.0767 11.3657 33.0767 10.0391C33.0767 8.7124 32.0033 7.63907 30.6733 7.63907Z" fill="white"/>
</svg>
